<?xml version="1.0" encoding="utf-8"?>
<!-- Generator: Adobe Illustrator 27.5.0, SVG Export Plug-In . SVG Version: 6.00 Build 0)  -->
<svg version="1.1" xmlns="http://www.w3.org/2000/svg" xmlns:xlink="http://www.w3.org/1999/xlink" x="0px" y="0px"
	 viewBox="0 0 750 500" style="enable-background:new 0 0 750 500;" xml:space="preserve">
<g id="BACKGROUND">
	<rect style="fill:none;" width="750" height="500"/>
</g>
<g id="OBJECTS">
	<g>
		<defs>
			<rect id="SVGID_1_" width="750" height="500"/>
		</defs>
		<clipPath id="SVGID_00000088133627313582908430000008118782612458944384_">
			<use xlink:href="#SVGID_1_"  style="overflow:visible;"/>
		</clipPath>
		<path style="clip-path:url(#SVGID_00000088133627313582908430000008118782612458944384_);fill:#007599;" d="M182.917-67.364
			c22.076,8.692,38.282,33.608,32.148,56.527c-2.424,9.057-7.881,17.001-11.074,25.817c-5.642,15.579-3.628,33.732,5.292,47.696
			c6.817,10.672,17.36,18.974,22.166,30.689c6.472,15.778,0.503,34.88-11.785,46.705c-12.287,11.825-29.74,17.105-46.783,17.706
			c-24.061,0.848-51.222-9.902-58.761-32.767c-2.391-7.254-2.581-15.026-4-22.53c-2.615-13.827-9.552-26.804-19.597-36.658
			c-7.256-7.119-16.703-12.79-26.867-12.661c-10.544,0.134-20.006,6.366-30.333,8.499c-17.261,3.565-35.798-5.39-45.684-19.982
			s-11.646-33.789-6.89-50.76c4.756-16.971,15.507-31.824,28.532-43.698C16.95-59.77,25.629-65.936,35.526-69.05
			c19.559-6.156,31.137,3.025,45.119,15.049c8.742,7.518,16.308,11.353,27.233,6.342c9.96-4.569,17.493-13.499,27.58-18.163
			C150.207-72.642,167.756-73.334,182.917-67.364z"/>
		<path style="clip-path:url(#SVGID_00000088133627313582908430000008118782612458944384_);fill:#007599;" d="M611.076,467.234
			c-1.451-16.376-11.775-30.351-19.768-44.717c-10.341-18.587-17.181-39.114-20.054-60.189c-3.359-24.638-0.67-51.584,14.844-71.017
			s46.494-27.518,66.132-12.264c8.957,6.958,14.379,17.431,19.119,27.735c4.74,10.304,9.231,21.025,17.008,29.281
			c7.776,8.257,19.81,13.623,30.603,10.135c9.834-3.178,16.322-12.695,25.671-17.1c15.065-7.099,34.045,1.62,42.861,15.749
			c8.816,14.13,9.441,31.912,7.22,48.418c-4.701,34.939-21.273,68.172-46.351,92.95c-30.944,30.575-72.648,47.219-113.148,63.097
			c-16.125,6.322-32.803,12.745-50.116,12.225c-8.992-0.27-21.858-3.826-22.572-14.693c-0.682-10.389,8.698-10.532,15.609-15.059
			C596.726,519.607,613.047,489.482,611.076,467.234z"/>
		<path style="clip-path:url(#SVGID_00000088133627313582908430000008118782612458944384_);fill:#007599;" d="M-22.325,110.431
			C15.47,92.892,65.1,106.983,88.041,141.765c26.176,39.687,16.47,92.435,28.508,138.428c3.392,12.958,8.756,25.752,18.012,35.434
			c30.119,31.502,87.368,18.767,119.257,48.476c23.256,21.666,25.967,59.958,50.959,79.597
			c17.775,13.968,42.081,14.804,64.315,18.888c22.234,4.085,46.882,15.316,51.854,37.369c0.873,3.871,1.022,8.094-0.743,11.649
			c-3.4,6.842-12.153,8.648-19.728,9.647c-42.73,5.634-85.481,11.106-128.253,16.415c-83.25,10.334-167.019,20.069-250.822,16.302
			c-11.612-0.522-24.046-1.615-33.055-8.96c-8.508-6.937-12.212-18.053-15.102-28.643C-61.636,388.561-36.834,253.04-40.476,120.612
			"/>
		<path style="clip-path:url(#SVGID_00000088133627313582908430000008118782612458944384_);fill:#007599;" d="M354.75,81.576
			c33.339,16.95,73.483,8.482,109.469-1.706c35.987-10.188,74.448-21.753,109.963-10.027c27.138,8.96,49.26,31.844,57.297,59.271
			c6.036,20.601,6.778,46.583,25.631,56.847c10.995,5.986,24.495,4.017,36.69,6.845c14.766,3.424,27.549,14.461,33.087,28.571
			c3.483,8.874,4.194,18.604,7.214,27.646c3.02,9.042,9.388,18.009,18.758,19.762c8.301,1.553,16.815-3.177,21.926-9.9
			c5.111-6.723,7.418-15.13,9.137-23.399c3.377-16.238,4.915-32.794,6.447-49.308c5.389-58.089,10.761-116.888,1.801-174.534
			c-1.052-6.77-2.477-13.886-7.045-18.992c-3.865-4.32-9.473-6.61-14.978-8.424c-36.609-12.063-76.211-9.013-114.702-6.977
			c-69.37,3.669-138.882,3.598-208.312,1.936c-34.739-0.832-69.467-2.064-104.189-3.427c-30.854-1.211-43.969,4.736-36.719,37.904
			C312.314,41.521,328.767,68.366,354.75,81.576z"/>
		<path style="clip-path:url(#SVGID_00000088133627313582908430000008118782612458944384_);fill:#00536D;" d="M41.972,226.712
			c18.047,15.306,26.303,39.985,25.771,63.643c-0.356,15.849-4.242,31.453-4.714,47.3c-0.761,25.556,7.723,51.288,23.535,71.379
			c8.296,10.542,19.036,19.817,32.025,23.169c20.455,5.279,41.466-4.887,62.535-6.429c10.709-0.784,22.1,0.924,30.579,7.513
			c11.935,9.275,15.865,26.234,27.866,35.423c9.997,7.655,23.533,8.387,36.122,8.192c12.59-0.195,25.801-0.878,37.09,4.697
			c11.289,5.575,19.338,20.038,13.242,31.055c-5.087,9.193-16.981,11.755-27.456,12.573c-39.499,3.084-79.004-4.896-118.62-5.446
			c-27.089-0.376-54.092,2.724-81.153,4.007c-34.357,1.628-68.778,0.326-103.149-0.977c-4.939-0.187-10.079-0.427-14.425-2.782
			c-6.097-3.303-9.399-10.071-11.699-16.612c-4.127-11.737-6.273-24.083-7.652-36.448c-2.531-22.696-2.529-45.588-2.525-68.425
			c0.009-42.389,0.017-84.779,0.026-127.168c0.003-12.241-0.847-27.201,4.117-38.704c3.706-8.588,11.704-11.422,20.18-15.126
			C2.887,209.149,26.04,213.2,41.972,226.712z"/>
		<path style="clip-path:url(#SVGID_00000088133627313582908430000008118782612458944384_);fill:#00536D;" d="M421.546,47.069
			c14.475,5.374,29.944-3.289,43.569-10.553c12.368-6.594,25.23-12.26,38.444-16.934c3.825-1.353,7.818-2.641,11.857-2.258
			c13.557,1.285,18.504,18.771,29.633,26.619c8.262,5.827,19.422,5.753,29.188,3.135c9.765-2.617,18.783-7.469,28.385-10.635
			c15.018-4.953,32.475-5.368,45.756,3.217c11.005,7.114,17.65,19.333,22.109,31.655c4.459,12.323,7.215,25.287,12.807,37.138
			c9.738,20.637,28.2,36.982,49.865,44.148c12.754,4.219,28.537,4.631,37.816-5.084c4.286-4.487,6.535-10.497,8.534-16.371
			c9.453-27.778,15.776-56.619,18.813-85.804c1.681-16.154,1.752-34.26-9.036-46.401c-10.867-12.229-28.942-14.206-45.27-15.229
			c-60.512-3.792-121.136-5.778-181.766-5.957c-29.916-0.088-59.834,0.264-89.739,1.056c-18.521,0.49-59.653-5.649-73.685,9.365
			C383.333,4.752,404.028,40.565,421.546,47.069z"/>
		<path style="clip-path:url(#SVGID_00000088133627313582908430000008118782612458944384_);fill:#002933;" d="M19.688,469.601
			c14.392,9.357,32.99,11.946,49.39,6.874c8.776-2.714,16.772-7.434,25.168-11.161c17.593-7.81,37.115-11.23,56.315-9.865
			c13.861,0.985,28.358,4.908,37.762,15.138c9.405,10.23,11.354,28.058,1.191,37.534c-6.027,5.62-14.671,7.234-22.836,8.356
			c-47.173,6.481-95.048,4.589-142.626,2.683c-14.804-0.593-31.179-1.858-41.444-12.542c-7.7-8.013-10.162-19.672-11.013-30.752
			c-0.72-9.376-0.493-19.015,2.654-27.876c2.024-5.698,5.618-12.071,10.635-15.674c8.638-6.204,7.351-3.266,10.505,4.636
			C0.69,450.231,7.362,461.587,19.688,469.601z"/>
		<path style="clip-path:url(#SVGID_00000088133627313582908430000008118782612458944384_);fill:#002933;" d="M702.959,17.736
			c8.756,7.685,10.298,20.462,12.071,31.976c1.84,11.943,4.685,24.084,11.55,34.029c6.865,9.944,18.524,17.334,30.55,16.148
			c13.24-1.306,23.758-12.634,28.193-25.178c4.435-12.544,3.987-26.213,3.485-39.507c-0.261-6.919-0.522-13.838-0.783-20.756
			c-0.229-6.069-0.504-12.334-3.118-17.817c-5.9-12.374-21.156-16.56-34.634-19.063c-29.981-5.568-74.24-17.755-97.75,8.991
			C626.816,15.806,690.635,6.92,702.959,17.736z"/>
		<path style="clip-path:url(#SVGID_00000088133627313582908430000008118782612458944384_);fill:#002933;" d="M642.233,402.171
			c40.573-23.405,89.41-32.13,135.577-24.222c9.002,44.717,11.127,90.812,6.276,136.167c-34.09-3.034-67.82,7.161-101.866,10.66
			c-19.079,1.961-38.304,1.815-57.482,1.667c-19.605-0.151-39.21-0.285-58.814-0.454c-12.617-0.109-22.117-1.183-17.073-15.778
			c9.135-26.433,31.058-55.023,50.389-74.685C611.972,422.576,626.454,411.187,642.233,402.171z"/>
		<path style="clip-path:url(#SVGID_00000088133627313582908430000008118782612458944384_);fill:#002933;" d="M55.84,83.096
			c32.169,7.966,67.529,10.379,97.281-4.22c12.79-6.276,24.62-16.323,28.809-29.94c4.304-13.991-0.323-29.636-9.261-41.229
			c-8.938-11.592-21.691-19.656-34.856-26.054C102.433-35.537,62.414-42.201,23.124-40.337C9.692-39.7-4.661-37.675-14.62-28.639
			C-31.078-13.706-34.569,19.32-20.559,36.66C-0.687,61.254,25.493,75.581,55.84,83.096z"/>
		<path style="clip-path:url(#SVGID_00000088133627313582908430000008118782612458944384_);fill:#FFFFFF;" d="M728.709,120.022
			c-5.027-6.261-15.774-6.99-21.16-0.093c-1.755,2.249-2.821,4.927-3.055,7.774c-0.48,5.847,3.447,10.972,8.717,13.096
			c5.595,2.255,11.696,0.316,15.281-4.429c1.775-2.349,2.76-5.053,3.087-7.969C731.919,125.367,730.573,122.343,728.709,120.022z
			 M726.684,129.906c-0.508,4.257-4.291,8.006-8.68,8.006c-4.476,0.001-8.817-3.257-9.767-7.677
			c-0.519-2.414,0.102-4.999,1.343-7.096c3.257-5.504,12.445-3.943,15.66,0.876C726.424,125.793,726.937,127.784,726.684,129.906z"
			/>
		<path style="clip-path:url(#SVGID_00000088133627313582908430000008118782612458944384_);fill:#FFFFFF;" d="M641.363,49.076
			c-5.923-7.377-18.586-8.237-24.932-0.11c-2.069,2.649-3.324,5.806-3.6,9.16c-0.565,6.89,4.062,12.928,10.271,15.431
			c6.592,2.658,13.781,0.373,18.005-5.219c2.091-2.768,3.252-5.954,3.637-9.39C645.145,55.374,643.558,51.811,641.363,49.076z
			 M638.976,60.722c-0.598,5.015-5.056,9.433-10.228,9.434c-5.274,0.001-10.389-3.838-11.508-9.045
			c-0.612-2.845,0.12-5.89,1.582-8.361c3.837-6.486,14.664-4.646,18.452,1.032C638.67,55.875,639.274,58.221,638.976,60.722z"/>
		<path style="clip-path:url(#SVGID_00000088133627313582908430000008118782612458944384_);fill:#FFFFFF;" d="M88.559,444.351
			c-5.923-7.377-18.586-8.237-24.932-0.11c-2.068,2.649-3.324,5.806-3.599,9.16c-0.565,6.89,4.062,12.928,10.271,15.431
			c6.592,2.657,13.781,0.373,18.005-5.219c2.091-2.768,3.252-5.954,3.637-9.39C92.341,450.648,90.754,447.085,88.559,444.351z
			 M86.172,455.997c-0.598,5.016-5.056,9.433-10.228,9.434c-5.274,0.001-10.389-3.838-11.508-9.045
			c-0.612-2.845,0.12-5.89,1.582-8.361c3.837-6.486,14.664-4.646,18.452,1.032C85.866,451.15,86.47,453.496,86.172,455.997z"/>
		<path style="clip-path:url(#SVGID_00000088133627313582908430000008118782612458944384_);fill:#FFFFFF;" d="M65.364,227.868
			c-5.923-7.378-18.586-8.237-24.932-0.11c-2.069,2.649-3.324,5.806-3.599,9.16c-0.565,6.89,4.062,12.928,10.271,15.431
			c6.592,2.657,13.781,0.373,18.006-5.219c2.091-2.768,3.252-5.954,3.637-9.39C69.146,234.166,67.559,230.602,65.364,227.868z
			 M62.977,239.514c-0.598,5.015-5.056,9.433-10.228,9.434c-5.274,0.001-10.389-3.838-11.508-9.045
			c-0.611-2.845,0.12-5.89,1.582-8.361c3.837-6.486,14.664-4.646,18.452,1.032C62.671,234.667,63.275,237.013,62.977,239.514z"/>
		<path style="clip-path:url(#SVGID_00000088133627313582908430000008118782612458944384_);fill:#FFFFFF;" d="M414.288,468.758
			c-4.466-5.562-14.013-6.21-18.798-0.083c-1.56,1.998-2.506,4.377-2.714,6.906c-0.426,5.194,3.062,9.747,7.744,11.635
			c4.97,2.004,10.39,0.281,13.575-3.935c1.577-2.087,2.452-4.489,2.742-7.08C417.139,473.506,415.943,470.819,414.288,468.758z
			 M412.488,477.538c-0.451,3.781-3.812,7.112-7.712,7.113c-3.976,0-7.833-2.894-8.677-6.82c-0.461-2.145,0.09-4.441,1.193-6.304
			c2.893-4.89,11.056-3.503,13.912,0.778C412.257,473.884,412.713,475.652,412.488,477.538z"/>
		<path style="clip-path:url(#SVGID_00000088133627313582908430000008118782612458944384_);fill:#FFFFFF;" d="M46.617,470.401
			c-3.656-4.553-11.471-5.084-15.388-0.068c-1.277,1.635-2.052,3.583-2.222,5.653c-0.349,4.252,2.507,7.979,6.339,9.524
			c4.069,1.64,8.506,0.23,11.113-3.221c1.291-1.708,2.007-3.675,2.245-5.795C48.952,474.288,47.972,472.089,46.617,470.401z
			 M45.144,477.589c-0.369,3.095-3.12,5.822-6.313,5.822c-3.255,0-6.412-2.369-7.103-5.583c-0.377-1.756,0.074-3.635,0.977-5.16
			c2.368-4.003,9.05-2.867,11.388,0.637C44.955,474.597,45.328,476.045,45.144,477.589z"/>
		<path style="clip-path:url(#SVGID_00000088133627313582908430000008118782612458944384_);fill:#FFFFFF;" d="M775.432,394.33
			c-0.73-0.34-1.52-0.835-2.299-1.041c-1.001-0.264-2.238-0.088-3.263-0.059c-1.975,0.055-3.95,0.159-5.921,0.279
			c-3.943,0.24-7.88,0.587-11.805,1.039c-7.887,0.909-15.728,2.217-23.479,3.939c-15.468,3.436-30.551,8.503-45.006,14.987
			c-14.365,6.444-28.08,14.338-40.853,23.544c-12.853,9.264-24.733,19.803-35.311,31.604c-11.227,12.525-21.584,26.36-27.765,42.122
			c-0.393,1.002-0.751,2.027-0.991,3.079c-0.222,0.975-0.066,1.992,0.011,2.98c0.013,0.169,0.235,0.304,0.367,0.152
			c0.56-0.651,1.259-1.28,1.696-2.025c0.557-0.949,0.957-2.045,1.375-3.062c0.804-1.956,1.692-3.879,2.633-5.772
			c1.897-3.815,4.035-7.513,6.336-11.098c4.525-7.05,9.717-13.654,15.228-19.954c10.196-11.656,21.655-22.301,34.013-31.634
			c12.406-9.369,25.763-17.472,39.787-24.179c13.995-6.693,28.673-11.957,43.728-15.699c15.145-3.764,30.567-5.838,46.153-6.443
			c0.918-0.036,1.915,0.021,2.817-0.165c0.884-0.183,1.737-0.745,2.548-1.144C775.972,395.515,775.99,394.59,775.432,394.33z"/>
		<path style="clip-path:url(#SVGID_00000088133627313582908430000008118782612458944384_);fill:#FFFFFF;" d="M775.375,437.466
			c-2.921-0.978-5.982-0.915-9.039-0.952c-3.027-0.037-6.056,0.011-9.08,0.141c-6.082,0.262-12.145,0.867-18.166,1.764
			c-11.917,1.777-23.644,4.805-34.952,8.962c-22.678,8.338-43.742,21.111-61.365,37.665c-4.917,4.618-9.564,9.524-13.899,14.692
			c-2.194,2.616-4.288,5.311-6.299,8.069c-2.011,2.757-3.964,5.544-5.396,8.652c-0.431,0.935,0.738,2.072,1.534,1.183
			c3.969-4.436,7.298-9.447,11.107-14.029c3.828-4.604,7.903-9.002,12.197-13.174c8.488-8.249,17.822-15.631,27.776-22.034
			c19.948-12.831,42.404-21.697,65.775-25.789c6.548-1.147,13.161-1.898,19.8-2.253c3.275-0.175,6.555-0.254,9.834-0.234
			c3.41,0.021,6.813,0.399,10.174-0.255C776.667,439.625,776.455,437.828,775.375,437.466z"/>
		<path style="clip-path:url(#SVGID_00000088133627313582908430000008118782612458944384_);fill:#FFFFFF;" d="M777.753,466.771
			c-1.202-0.875-2.531-1.598-3.769-2.43c-0.701-0.471-1.516,0.442-1.122,1.122c0.13,0.224,0.253,0.452,0.377,0.68
			c-5.805-0.474-11.711-0.311-17.475,0.208c-7.158,0.645-14.257,1.93-21.17,3.898c-13.758,3.918-26.852,10.326-38.306,18.904
			c-6.417,4.806-12.486,10.215-17.37,16.596c-0.825,1.077,0.92,2.329,1.84,1.42c4.94-4.879,9.933-9.694,15.471-13.903
			c5.53-4.203,11.449-7.893,17.647-11.027c12.255-6.197,25.714-10.231,39.37-11.725c7.879-0.862,15.634-0.632,23.519-0.093
			C778.893,470.567,779.169,467.802,777.753,466.771z"/>
		<path style="clip-path:url(#SVGID_00000088133627313582908430000008118782612458944384_);fill:#FFFFFF;" d="M147.318,24.327
			c-0.583-8.494-3.411-16.545-7.62-23.905c-2.255-3.944-4.876-7.659-7.666-11.241c-2.774-3.562-5.668-7.2-8.969-10.292
			c-1.635-1.531-3.329-2.998-5.013-4.475c-0.824-0.722-2.368,0.252-1.626,1.254c2.617,3.531,5.279,6.97,8.114,10.329
			c2.783,3.297,5.512,6.622,7.976,10.168c4.742,6.825,8.596,14.302,10.248,22.499c1.508,7.485,1.242,15.659-1.763,22.755
			c-3.002,7.091-8.741,12.271-15.59,15.575c-6.982,3.368-14.793,4.801-22.469,5.406c-8.168,0.644-16.439,0.372-24.546-0.826
			c-16.444-2.43-32.227-8.309-46.839-16.134C16.683,37.476,2.909,27.469-9.681,16.262c-1.547-1.377-3.127-2.717-4.677-4.092
			c-0.747-0.663-1.816,0.381-1.105,1.105C-3.28,25.682,10.866,36.51,25.853,45.31c14.771,8.674,30.862,15.346,47.741,18.519
			c8.316,1.563,16.792,2.323,25.254,2.062c8.186-0.253,16.506-1.325,24.204-4.236c7.488-2.831,14.294-7.427,18.743-14.194
			C146.245,40.694,147.867,32.33,147.318,24.327z"/>
		<path style="clip-path:url(#SVGID_00000088133627313582908430000008118782612458944384_);fill:#FFFFFF;" d="M100.475,13.995
			c-0.429-5.826-2.394-11.39-5.281-16.442c-3.347-5.856-7.886-10.936-12.826-15.49c-2.508-2.312-5.123-4.505-7.766-6.66
			c-1.38-1.125-2.746-2.28-4.163-3.358c-1.425-1.084-2.995-1.841-4.627-2.557c-0.665-0.292-1.645,0.37-1.122,1.122
			c3.305,4.755,8.384,7.943,12.704,11.723c4.3,3.761,8.453,7.804,11.801,12.453c3.146,4.37,5.643,9.194,6.983,14.426
			c1.214,4.743,1.798,10.771-0.839,15.16c-2.607,4.338-8.055,4.976-12.66,4.719c-4.938-0.275-9.898-1.323-14.664-2.608
			c-9.768-2.632-19.057-6.893-27.467-12.51c-4.744-3.168-9.103-6.791-13.24-10.71c-2.051-1.944-4.014-3.981-5.876-6.106
			c-1.896-2.163-3.652-4.441-5.654-6.504c-0.309-0.319-0.754,0.084-0.583,0.45c2.234,4.775,6.012,8.95,9.605,12.759
			c3.684,3.905,7.81,7.402,12.141,10.567c8.605,6.289,18.276,11.134,28.47,14.247c5.131,1.567,10.438,2.742,15.777,3.307
			c5.042,0.534,10.66,0.241,14.695-3.197C100.06,25.228,100.855,19.159,100.475,13.995z"/>
		<path style="clip-path:url(#SVGID_00000088133627313582908430000008118782612458944384_);fill:#03ABED;" d="M107.32,302.504
			c-5.412,12.466-4.277,27.565,2.937,39.082c6.222,9.932,16.445,16.907,27.454,20.929c7.979,2.914,16.595,4.411,25.019,3.322
			c12.267-1.587,23.609-8.819,30.565-19.048c10.793-15.87,10.115-38.655-1.603-53.855
			C170.922,265.992,121.122,270.714,107.32,302.504z"/>
		<path style="clip-path:url(#SVGID_00000088133627313582908430000008118782612458944384_);fill:#03ABED;" d="M230.029,343.271
			c-4.687,3.151-7.672,8.691-7.727,14.338c-0.047,4.871,1.969,9.602,4.922,13.476c2.14,2.808,4.821,5.262,8.014,6.768
			c4.65,2.193,10.24,2.202,14.966,0.179c7.333-3.138,12.2-11.265,11.503-19.211C260.472,344.737,241.982,335.234,230.029,343.271z"
			/>
		<path style="clip-path:url(#SVGID_00000088133627313582908430000008118782612458944384_);fill:#03ABED;" d="M287.911,53.368
			c-5.009,11.996-3.959,26.526,2.719,37.609c5.759,9.558,15.221,16.27,25.41,20.14c7.385,2.805,15.36,4.245,23.157,3.197
			c11.354-1.527,21.852-8.487,28.29-18.33c9.99-15.272,9.362-37.199-1.484-51.826C346.779,18.231,300.686,22.775,287.911,53.368z"/>
		<path style="clip-path:url(#SVGID_00000088133627313582908430000008118782612458944384_);fill:#03ABED;" d="M452.566,481.273
			c-4.04,9.676-3.193,21.397,2.193,30.336c4.645,7.71,12.277,13.124,20.496,16.245c5.957,2.262,12.39,3.424,18.679,2.579
			c9.159-1.232,17.626-6.846,22.819-14.785c8.058-12.319,7.552-30.005-1.197-41.804C500.05,452.932,462.87,456.597,452.566,481.273z
			"/>
		<path style="clip-path:url(#SVGID_00000088133627313582908430000008118782612458944384_);fill:#03ABED;" d="M692.367,244.723
			c-5.009,11.996-3.959,26.526,2.719,37.609c5.759,9.558,15.221,16.27,25.41,20.14c7.385,2.805,15.36,4.245,23.157,3.197
			c11.354-1.527,21.852-8.487,28.29-18.33c9.99-15.272,9.362-37.199-1.484-51.826C751.235,209.587,705.141,214.13,692.367,244.723z"
			/>
		<path style="clip-path:url(#SVGID_00000088133627313582908430000008118782612458944384_);fill:#03ABED;" d="M459.89,84.104
			c2.959,6.302,9.104,11.111,15.903,12.448c5.864,1.152,11.931-0.189,17.132-2.841c3.769-1.922,7.209-4.569,9.597-8.04
			c3.478-5.055,4.491-11.724,2.9-17.82c-2.468-9.457-11.395-17.094-21.101-18.051C467.118,48.105,452.344,68.032,459.89,84.104z"/>
		<path style="clip-path:url(#SVGID_00000088133627313582908430000008118782612458944384_);fill:#002933;" d="M71.788,310.187
			c-1.926-1.731-4.002-3.312-6.584-3.898c-2.167-0.492-4.723,0.647-5.25,2.981c-0.606,2.685-0.222,5.267,0.546,7.877
			c0.414,1.405,0.81,2.814,1.52,4.107c1.499,2.732,4.072,3.915,7.079,4.076c3.312,0.177,5.587-2.339,6.706-5.106
			C77.474,316.101,74.623,312.734,71.788,310.187z"/>
		<path style="clip-path:url(#SVGID_00000088133627313582908430000008118782612458944384_);fill:#002933;" d="M54.124,308.409
			c-0.816-3.511-3.946-6.507-6.88-8.369c-2.591-1.644-5.711,0.534-5.832,3.346c-0.157,3.675,0.789,7.724,3.296,10.504
			c1.601,1.775,4.817,2.176,6.827,0.881C53.701,313.375,54.711,310.933,54.124,308.409z"/>
		<path style="clip-path:url(#SVGID_00000088133627313582908430000008118782612458944384_);fill:#002933;" d="M43.269,329.137
			c-0.752-1.429-2.045-2.363-3.382-3.206c-0.598-0.377-1.265-0.61-1.926-0.861c-0.031-0.012-0.052-0.019-0.079-0.03
			c-1.948-1.058-4.708-1.991-6.515-0.118c-1.753,1.818-1.555,4.304-0.926,6.561c0.8,2.871,2.926,5.857,6.006,6.526
			c2.415,0.524,4.809-0.171,6.349-2.165C44.317,333.879,44.42,331.324,43.269,329.137z"/>
		<path style="clip-path:url(#SVGID_00000088133627313582908430000008118782612458944384_);fill:#002933;" d="M61.684,330.336
			c-2.462-1.731-6.525-2.561-8.815,0.041c-1.801,2.046-2.395,4.558-2.036,7.23c0.446,3.317,2.905,6.867,6.26,7.655
			c3.043,0.714,6.028-0.498,7.692-3.13C67.274,338.197,65.213,332.818,61.684,330.336z"/>
		<path style="clip-path:url(#SVGID_00000088133627313582908430000008118782612458944384_);fill:#002933;" d="M63.327,365.361
			c-0.391-2.816-2.76-5.034-4.855-6.733c-0.172-0.133-0.307-0.238-0.412-0.319c-0.036-0.03-0.097-0.082-0.207-0.172
			c-0.389-0.333-0.773-0.67-1.139-1.029c-0.815-0.8-1.488-1.646-2.507-2.21c-1.676-0.928-4.409-0.557-5.28,1.384
			c-2.395,5.337,0.572,15.453,7.115,16.363C60.821,373.311,63.99,370.139,63.327,365.361z"/>
		<path style="clip-path:url(#SVGID_00000088133627313582908430000008118782612458944384_);fill:#002933;" d="M86.348,346.979
			c-0.665-1.248-1.879-2.297-3.021-3.096c-0.243-0.17-0.497-0.327-0.742-0.494c-0.04-0.027-0.069-0.047-0.103-0.07
			c-0.004-0.008-0.051-0.049-0.175-0.145c-1.02-0.793-1.832-1.222-3.045-1.64c-1.284-0.442-3.289,0.266-3.862,1.571
			c-0.986,2.248-0.918,4.23-0.358,6.614c0.744,3.171,3.566,6.221,7.035,6.014c2.041-0.122,4.608-1.493,4.954-3.772
			C87.305,350.153,87.225,348.626,86.348,346.979z"/>
		<path style="clip-path:url(#SVGID_00000088133627313582908430000008118782612458944384_);fill:#002933;" d="M79.196,368.264
			c-0.528-1.559-1.489-3.331-3.007-4.133c-0.8-0.423-1.69-0.673-2.549-0.947c-1.309-0.418-2.729-0.036-3.78,0.776
			c-1.14,0.88-1.584,1.995-1.709,3.405c-0.067,0.75-0.133,1.419-0.032,2.174c0.197,1.465,1.005,2.95,2.118,3.94
			c1.724,1.533,4.428,2.171,6.495,0.838C78.654,373.079,79.976,370.565,79.196,368.264z"/>
		<path style="clip-path:url(#SVGID_00000088133627313582908430000008118782612458944384_);fill:#002933;" d="M37.111,360.894
			c-0.376-2.117-2.229-3.685-3.287-4.952c-0.317-0.38-1.19-1.406-1.765-2.024c-0.669-0.72-1.393-1.289-2.203-1.849
			c-1.976-1.367-4.634,0.08-5.269,2.144c-1.564,5.084,2.652,12.269,8.173,12.392C35.916,366.676,37.605,363.679,37.111,360.894z"/>
		<path style="clip-path:url(#SVGID_00000088133627313582908430000008118782612458944384_);fill:#002933;" d="M709.895,169.714
			c-1.081-3.327-3.697-7.68-7.448-8.41c-1.473-0.287-3.343,0.164-4.063,1.654c-1.652,3.413-0.483,7.922,1.627,10.924
			c1.563,2.223,4.138,3.316,6.753,2.213C709.134,175.093,710.734,172.293,709.895,169.714z"/>
		<path style="clip-path:url(#SVGID_00000088133627313582908430000008118782612458944384_);fill:#002933;" d="M703.652,191.111
			c-0.477-2.086-1.911-4.04-3.17-5.752c-1.316-1.79-3.205-3.48-5.486-3.63c-1.428-0.094-2.395,1.02-2.883,2.195
			c-0.664,1.601-0.012,3.862,0.479,5.467c0.368,1.202,0.682,2.463,1.11,3.665c0.199,1.478,1.01,2.884,2.298,3.525
			c0.109,0.054,0.217,0.108,0.326,0.162C700.249,198.693,704.654,195.488,703.652,191.111z"/>
		<path style="clip-path:url(#SVGID_00000088133627313582908430000008118782612458944384_);fill:#002933;" d="M685.741,196.081
			c-0.643-1.1-1.487-1.987-2.317-2.934c-1.211-1.382-2.598-3.322-4.22-4.19c-1.509-0.807-4.015-0.535-4.784,1.254
			c-2.137,4.973,1.238,14.379,7.487,14.267c1.89-0.034,4.317-1.449,4.621-3.518C686.801,199.098,686.722,197.761,685.741,196.081z"
			/>
		<path style="clip-path:url(#SVGID_00000088133627313582908430000008118782612458944384_);fill:#002933;" d="M721.702,188.837
			c-1.132-1.231-2.742-2.882-4.448-3.117c-1.431-0.197-2.656,0.149-3.469,1.412c-2.005,3.115-0.426,9.551,2.33,11.727
			c1.578,1.245,3.375,1.877,5.344,1.011c1.814-0.797,2.943-2.47,3.008-4.471C724.546,192.953,723.339,190.616,721.702,188.837z"/>
		<path style="clip-path:url(#SVGID_00000088133627313582908430000008118782612458944384_);fill:#002933;" d="M709.085,212.314
			c1.183,1.347-0.026-0.134-0.125-0.263c-0.539-0.684-0.547-0.706-0.023-0.065c-0.059-0.113-0.119-0.226-0.178-0.339
			c-0.261-0.836-1.316-1.93-1.987-2.593c-0.535-0.529-1.13-1.019-1.703-1.507c-1.222-1.041-2.188-1.378-3.753-1.499
			c-1.109-0.086-2.52,0.702-2.995,1.718c-0.791,1.691-0.792,2.998-0.415,4.783c0.264,1.249,0.613,2.371,1.111,3.551
			c1.377,3.262,5.862,6.028,9.127,3.51C710.6,217.717,711.251,214.78,709.085,212.314z"/>
		<path style="clip-path:url(#SVGID_00000088133627313582908430000008118782612458944384_);fill:#002933;" d="M732.109,215.075
			c0.481,0.589-0.63-0.829-0.747-0.957c-0.254-0.278-1.185-1.075-1.092-0.962c-0.511-0.491-1-1.008-1.498-1.511
			c-0.525-0.531-0.718-0.961-1.255-1.499c-0.32-0.321-0.68-0.583-1.07-0.81c-0.256-0.149-1.108-0.823-0.564-0.341
			c-0.397-0.352-1.085-0.544-1.562-0.202c-1.055,0.756-1.975,1.31-2.444,2.659c-0.398,1.144-0.413,2.425-0.292,3.624
			c0.162,1.608,0.749,3.069,1.646,4.411c1.16,1.736,2.527,2.532,4.433,3.225c1.879,0.683,4.199-0.456,5.161-2.1
			C733.918,218.742,733.407,216.665,732.109,215.075z"/>
		<path style="clip-path:url(#SVGID_00000088133627313582908430000008118782612458944384_);fill:#002933;" d="M734.42,178.567
			c-0.812-2.254-2.134-3.923-4.068-5.325c-1.312-0.951-3.505-2.209-5.2-2.001c-1.797,0.22-2.906,1.249-3.093,3.093
			c-0.174,1.713,1.065,3.798,2.07,5.132c1.423,1.89,3.118,3.255,5.384,4.009C732.281,184.396,735.436,181.387,734.42,178.567z"/>
		<path style="clip-path:url(#SVGID_00000088133627313582908430000008118782612458944384_);fill:#002933;" d="M745.14,199.474
			c-0.143-0.45-0.252-0.853-0.535-1.338c-0.218-0.372-1.582-1.741-0.546-0.689c-0.376-0.382-0.633-0.923-0.995-1.335
			c-0.07-0.091-0.153-0.171-0.238-0.248c-0.012-0.018-0.017-0.027-0.031-0.049c-0.044-0.081-0.088-0.162-0.133-0.244
			c-0.299-0.456-0.598-0.798-0.97-1.157c-0.89-0.857-2.219-1.604-3.512-1.113c-2.436,0.925-3.523,3.262-3.349,5.792
			c0.119,1.728,0.694,3.103,1.901,4.378c1.184,1.252,2.536,1.75,4.238,1.844c2.088,0.115,3.56-1.483,4.255-3.24
			c0.014-0.035,0.028-0.07,0.042-0.105C745.599,201.129,745.472,200.266,745.14,199.474z"/>
		<path style="clip-path:url(#SVGID_00000088133627313582908430000008118782612458944384_);fill:#FFFFFF;" d="M177.559,63.695
			c-0.78-3.121-1.315-7.653-3.781-9.926c-1.055-0.973-3.18-1.017-3.865,0.498c-1.544,3.415-0.236,7.891,0.314,11.449
			C170.958,70.443,178.771,68.544,177.559,63.695z"/>
		<path style="clip-path:url(#SVGID_00000088133627313582908430000008118782612458944384_);fill:#FFFFFF;" d="M194.91,25.333
			c-1.811-1.487-5.162-0.688-5.022,2.08c0.066,1.308,0.641,2.448,0.788,3.734c0.179,1.57,0.083,2.965,0.822,4.417
			c1.133,2.224,3.983,1.682,5.233,0C198.633,33.005,197.286,27.284,194.91,25.333z"/>
		<path style="clip-path:url(#SVGID_00000088133627313582908430000008118782612458944384_);fill:#FFFFFF;" d="M176.755,31.579
			c-1.788-1.663-4.929-0.53-4.911,2.034c0.016,2.248,0.767,4.804,1.419,6.95c0.517,1.701,2.046,4.224,4.206,3.506
			C182.305,42.463,179.26,33.907,176.755,31.579z"/>
		<path style="clip-path:url(#SVGID_00000088133627313582908430000008118782612458944384_);fill:#FFFFFF;" d="M193.046,61.009
			c-0.119-0.739-0.293-1.465-0.552-2.169c-0.62-1.683-1.702-3.125-2.912-4.434c-2.473-2.674-7.118,0.825-5.089,3.927
			c0.67,1.024,1.165,2.061,1.6,3.206c0.522,1.376,0.809,2.649,2.241,3.435c1.078,0.592,2.837,0.577,3.684-0.475
			C192.902,63.4,193.28,62.454,193.046,61.009z"/>
		<path style="clip-path:url(#SVGID_00000088133627313582908430000008118782612458944384_);fill:#FFFFFF;" d="M182.73,74.8
			c-0.661-0.048-1.45,0.41-1.745,1.001c-1.101,2.202-0.42,4.468,0.52,6.657c0.557,1.295,2.407,1.837,3.665,1.491
			c1.317-0.362,2.467-1.719,2.383-3.13C187.388,78.057,185.799,75.022,182.73,74.8z"/>
		<path style="clip-path:url(#SVGID_00000088133627313582908430000008118782612458944384_);fill:#FFFFFF;" d="M572.385,477.717
			c-0.092-1.029-0.293-1.83-0.841-2.7c-0.151-0.241-0.309-0.478-0.461-0.718c-0.096-0.151-0.141-0.215-0.164-0.245
			c0.002-0.017-0.025-0.108-0.168-0.436c-0.403-0.924-0.518-2.108-1.13-3.548c-1.075-2.531-4.737-1.961-5.97,0
			c-2.144,3.409-0.226,10.341,3.934,11.304C569.787,481.883,572.615,480.288,572.385,477.717z"/>
		<path style="clip-path:url(#SVGID_00000088133627313582908430000008118782612458944384_);fill:#FFFFFF;" d="M583.239,425.93
			c-1.567-1.842-4.086-0.533-4.83,1.275c-0.582,1.416-0.495,3.277-0.407,4.798c0.1,1.735,0.062,3.527,1.046,5.024
			c1.331,2.026,4.33,2.183,5.628,0C586.474,434,585.449,428.527,583.239,425.93z"/>
		<path style="clip-path:url(#SVGID_00000088133627313582908430000008118782612458944384_);fill:#FFFFFF;" d="M572.306,442.831
			c-1.085-1.303-3.153-2.443-4.622-0.905c-1.662,1.74-1.093,5.023-0.795,7.215c0.243,1.787,2.44,2.876,4.038,2.636
			c1.848-0.278,3.106-1.741,3.191-3.615C574.207,446.206,573.543,444.316,572.306,442.831z"/>
		<path style="clip-path:url(#SVGID_00000088133627313582908430000008118782612458944384_);fill:#FFFFFF;" d="M588.501,449.001
			c-1.528-0.799-3.295-0.353-4.234,1.11c-1.371,2.137-0.575,5.467-0.127,7.784c0.84,4.344,7.961,3.375,7.732-1.046
			C591.737,454.22,591.087,450.354,588.501,449.001z"/>
		<path style="clip-path:url(#SVGID_00000088133627313582908430000008118782612458944384_);fill:#FFFFFF;" d="M600.889,437.112
			c-0.431-1.657-1.549-2.798-2.874-3.799c-1.064-0.804-2.827-0.399-3.704,0.478c-1.006,1.006-1.081,2.475-0.478,3.704
			c-0.207-0.421-0.095-0.101,0.01,0.198c0.013,0.162,0.137,0.811,0.223,1.141c0.003,0.151,0.003,0.302-0.011,0.452
			c0.023,0.798,0.176,1.513,0.605,2.195c0.873,1.388,2.998,2.234,4.472,1.173C600.979,441.324,601.445,439.251,600.889,437.112z"/>
		<path style="clip-path:url(#SVGID_00000088133627313582908430000008118782612458944384_);fill:#002933;" d="M428.961,16.099
			c7.719,5.99,18.335,6.715,28.016,5.393c6.321-0.864,12.707-2.571,17.831-6.372c5.124-3.801,8.788-10.021,8.192-16.373
			c-0.518-5.53-4.151-10.402-8.673-13.627c-4.522-3.225-9.884-5.03-15.209-6.607c-12.313-3.649-32.316-7.762-42.035,3.885
			C408.508-7.325,420.075,9.203,428.961,16.099z"/>
		<path style="clip-path:url(#SVGID_00000088133627313582908430000008118782612458944384_);fill:#002933;" d="M20.981,289.36
			c2.298-14.862-0.446-30.976-9.859-42.704c-5.127-6.388-14.236-11.447-21.281-7.268c-4.063,2.41-6.051,7.135-7.634,11.587
			c-5.813,16.354-9.697,33.392-11.572,50.646c-1.177,10.832-6.27,36.448,4.05,44.357C-3.21,362.918,18.86,303.077,20.981,289.36z"/>
		<path style="clip-path:url(#SVGID_00000088133627313582908430000008118782612458944384_);fill:#FFFFFF;" d="M364.826,27.247
			c-4.285-5.337-13.447-5.959-18.038-0.079c-1.497,1.917-2.405,4.2-2.604,6.627c-0.409,4.985,2.938,9.353,7.431,11.164
			c4.769,1.923,9.97,0.27,13.026-3.776c1.513-2.003,2.353-4.308,2.631-6.793C367.562,31.803,366.414,29.225,364.826,27.247z
			 M363.099,35.672c-0.433,3.629-3.658,6.825-7.4,6.825c-3.815,0-7.516-2.777-8.326-6.544c-0.443-2.058,0.087-4.261,1.145-6.049
			c2.776-4.692,10.609-3.361,13.349,0.747C362.877,32.166,363.315,33.863,363.099,35.672z"/>
	</g>
</g>
</svg>
