<?xml version="1.0" encoding="utf-8"?>
<!-- Generator: Adobe Illustrator 27.5.0, SVG Export Plug-In . SVG Version: 6.00 Build 0)  -->
<svg version="1.1" id="Layer_1" xmlns="http://www.w3.org/2000/svg" xmlns:xlink="http://www.w3.org/1999/xlink" x="0px" y="0px"
	 viewBox="0 0 5000 2916" style="enable-background:new 0 0 5000 2916;" xml:space="preserve">
<g>
	<rect style="fill-rule:evenodd;clip-rule:evenodd;fill:none;" width="5000" height="2916"/>
	<g>
		<defs>
			<path id="SVGID_1_" d="M2891.661,0c-431.963,444.26-253.921,715.705,58.015,842.916
				c1043.053,425.369,939.291-690.942,1591.712-150.269C4776.105,887.162,5000,605.451,5000,605.451V0H2891.661z"/>
		</defs>
		<clipPath id="SVGID_00000020377489845760904580000015586360697497438651_">
			<use xlink:href="#SVGID_1_"  style="overflow:visible;"/>
		</clipPath>
		
			<linearGradient id="SVGID_00000068652464003341919750000003913545146129140911_" gradientUnits="userSpaceOnUse" x1="2911.5293" y1="1078.5276" x2="4936.8779" y2="-21.3301">
			<stop  offset="0" style="stop-color:#0067AF"/>
			<stop  offset="1" style="stop-color:#F856EA"/>
		</linearGradient>
		
			<rect x="2459.698" style="clip-path:url(#SVGID_00000020377489845760904580000015586360697497438651_);fill:url(#SVGID_00000068652464003341919750000003913545146129140911_);" width="2540.302" height="1268.285"/>
	</g>
	<path style="fill-rule:evenodd;clip-rule:evenodd;fill:#102770;" d="M4588.334,1504.238
		c-60.355,368.905-295.073,731.105-616.975,778.056c-321.898,46.951-1106.523,86.918-905.337,633.707H5000V1202.406
		C5000,1202.406,4648.69,1135.333,4588.334,1504.238"/>
	<g>
		<defs>
			<path id="SVGID_00000090279187225016166850000005942858154165708161_" d="M1671.492,2344.15
				c-557.324-39.006-299.281-474.34-669.036-908.645C696.154,1075.736,93.83,793.216,0,1658.507V2916h2442.343
				c0,0,160.948-412.363-100.593-566.633C2164.589,2244.868,1925.883,2361.956,1671.492,2344.15"/>
		</defs>
		<clipPath id="SVGID_00000067922963869584580200000016013523200372068759_">
			<use xlink:href="#SVGID_00000090279187225016166850000005942858154165708161_"  style="overflow:visible;"/>
		</clipPath>
		
			<linearGradient id="SVGID_00000064315328182958411210000007990331359265900187_" gradientUnits="userSpaceOnUse" x1="679.8621" y1="947.4542" x2="2317.8706" y2="3337.2351">
			<stop  offset="0" style="stop-color:#0067AF"/>
			<stop  offset="1" style="stop-color:#F856EA"/>
		</linearGradient>
		
			<rect y="793.216" style="clip-path:url(#SVGID_00000067922963869584580200000016013523200372068759_);fill:url(#SVGID_00000064315328182958411210000007990331359265900187_);" width="2603.291" height="2122.784"/>
	</g>
	<g>
		<defs>
			<path id="SVGID_00000127752948406909453510000007891680691230664612_" d="M0,565.207
				c593.153,494.069,771.051,112.563,1041.439-137.797c113.126-104.744,304.818-195.322,678.046-196.649
				C1821.457,230.399,1860.576,86.367,1825.376,0H0V565.207z"/>
		</defs>
		<clipPath id="SVGID_00000048469752369856184730000017587517078910021546_">
			<use xlink:href="#SVGID_00000127752948406909453510000007891680691230664612_"  style="overflow:visible;"/>
		</clipPath>
		
			<linearGradient id="SVGID_00000123421117113065356580000018364906873236504724_" gradientUnits="userSpaceOnUse" x1="187.6004" y1="875.7504" x2="1648.3982" y2="194.9788">
			<stop  offset="0" style="stop-color:#0067AF"/>
			<stop  offset="1" style="stop-color:#F856EA"/>
		</linearGradient>
		
			<rect style="clip-path:url(#SVGID_00000048469752369856184730000017587517078910021546_);fill:url(#SVGID_00000123421117113065356580000018364906873236504724_);" width="1860.576" height="1059.275"/>
	</g>
	<defs>
		<filter id="Adobe_OpacityMaskFilter" filterUnits="userSpaceOnUse" x="18.097" y="1087.34" width="1713.417" height="1271.977">
			<feColorMatrix  type="matrix" values="1 0 0 0 0  0 1 0 0 0  0 0 1 0 0  0 0 0 1 0"/>
		</filter>
	</defs>
	
		<mask maskUnits="userSpaceOnUse" x="18.097" y="1087.34" width="1713.417" height="1271.977" id="SVGID_00000033367981528432939250000000552715579288710278_">
		<g style="filter:url(#Adobe_OpacityMaskFilter);">
			
				<linearGradient id="SVGID_00000039835515008344620590000016692412058065448106_" gradientUnits="userSpaceOnUse" x1="-3327.9368" y1="3075.7278" x2="-1530.5551" y2="4540.9941" gradientTransform="matrix(1 0 0 1 3528.2622 -1902.2502)">
				<stop  offset="0" style="stop-color:#FFFFFF"/>
				<stop  offset="1" style="stop-color:#000000"/>
			</linearGradient>
			
				<rect x="18.097" y="1087.34" style="fill:url(#SVGID_00000039835515008344620590000016692412058065448106_);" width="1713.417" height="1271.979"/>
		</g>
	</mask>
	
		<path style="mask:url(#SVGID_00000033367981528432939250000000552715579288710278_);fill-rule:evenodd;clip-rule:evenodd;fill:#102770;" d="
		M18.097,1535.561c269.087,993.669,1713.418,810.458,1713.418,810.458c-19.893,0.103-39.908-0.462-60.022-1.869
		c-557.324-39.006-299.281-474.34-669.036-908.645C711.692,1093.985,154.168,822.075,18.097,1535.561"/>
	<g>
		<defs>
			<path id="SVGID_00000162324987523438761920000017831126304029466046_" d="M5000,1591.435
				c-144.963,704.274-1144.107,706.066-1144.107,706.066c-360.831,45.791-969.86,129.321-789.871,618.499H5000V1591.435z"/>
		</defs>
		<clipPath id="SVGID_00000049195768292189378200000000830450460859694251_">
			<use xlink:href="#SVGID_00000162324987523438761920000017831126304029466046_"  style="overflow:visible;"/>
		</clipPath>
		
			<linearGradient id="SVGID_00000085955789477634284320000007937538958067789460_" gradientUnits="userSpaceOnUse" x1="4568.2632" y1="3058.5117" x2="3642.4673" y2="1866.8608">
			<stop  offset="0" style="stop-color:#0067AF"/>
			<stop  offset="1" style="stop-color:#F856EA"/>
		</linearGradient>
		
			<rect x="2886.034" y="1591.435" style="clip-path:url(#SVGID_00000049195768292189378200000000830450460859694251_);fill:url(#SVGID_00000085955789477634284320000007937538958067789460_);" width="2113.966" height="1324.565"/>
	</g>
	<defs>
		
			<filter id="Adobe_OpacityMaskFilter_00000062900226334600546400000010011464889961051046_" filterUnits="userSpaceOnUse" x="3848.84" y="0" width="1151.16" height="761.121">
			<feColorMatrix  type="matrix" values="1 0 0 0 0  0 1 0 0 0  0 0 1 0 0  0 0 0 1 0"/>
		</filter>
	</defs>
	
		<mask maskUnits="userSpaceOnUse" x="3848.84" y="0" width="1151.16" height="761.121" id="SVGID_00000117652725609760922230000006446390564820079026_">
		<g style="filter:url(#Adobe_OpacityMaskFilter_00000062900226334600546400000010011464889961051046_);">
			
				<linearGradient id="SVGID_00000069369254406860006150000018081852600825492866_" gradientUnits="userSpaceOnUse" x1="-272.2461" y1="3118.2668" x2="780.7041" y2="2065.3167" gradientTransform="matrix(1 0 0 1 4099.4854 -2140.5251)">
				<stop  offset="0" style="stop-color:#FFFFFF"/>
				<stop  offset="1" style="stop-color:#000000"/>
			</linearGradient>
			
				<rect x="3848.84" style="fill:url(#SVGID_00000069369254406860006150000018081852600825492866_);" width="1151.16" height="761.122"/>
		</g>
	</mask>
	
		<path style="mask:url(#SVGID_00000117652725609760922230000006446390564820079026_);fill-rule:evenodd;clip-rule:evenodd;fill:#102770;" d="
		M5000,0c-399.806,4.916-1151.16,760.57-1151.16,760.57c209.49-170.191,341.643-358.723,692.547-67.924
		C4776.105,887.162,5000,605.451,5000,605.451V0z"/>
	<defs>
		
			<filter id="Adobe_OpacityMaskFilter_00000178196902760375796650000002356940065003434134_" filterUnits="userSpaceOnUse" x="0" y="239.291" width="1515.98" height="566.107">
			<feColorMatrix  type="matrix" values="1 0 0 0 0  0 1 0 0 0  0 0 1 0 0  0 0 0 1 0"/>
		</filter>
	</defs>
	
		<mask maskUnits="userSpaceOnUse" x="0" y="239.291" width="1515.98" height="566.107" id="SVGID_00000085243429482895398350000017048717848371190177_">
		<g style="filter:url(#Adobe_OpacityMaskFilter_00000178196902760375796650000002356940065003434134_);">
			
				<linearGradient id="SVGID_00000011028203501733351050000001573678424287094682_" gradientUnits="userSpaceOnUse" x1="-2139.1096" y1="2194.2466" x2="-3607.8293" y2="3273.989" gradientTransform="matrix(1 0 0 1 3525.5637 -2133.9241)">
				<stop  offset="0" style="stop-color:#FFFFFF"/>
				<stop  offset="1" style="stop-color:#000000"/>
			</linearGradient>
			
				<rect y="239.289" style="fill:url(#SVGID_00000011028203501733351050000001573678424287094682_);" width="1515.98" height="566.109"/>
		</g>
	</mask>
	
		<path style="mask:url(#SVGID_00000085243429482895398350000017048717848371190177_);fill-rule:evenodd;clip-rule:evenodd;fill:#102770;" d="
		M1515.98,241.725c0,0-1095.513-51.895-1515.98,323.481c593.153,494.069,771.051,112.563,1041.439-137.797
		C1131.875,343.675,1272.518,268.994,1515.98,241.725"/>
</g>
</svg>
