<svg width="221" height="221" viewBox="0 0 221 221" fill="none" xmlns="http://www.w3.org/2000/svg">
<path d="M199.265 175.072C214.483 153.804 222.136 127.173 219.686 102.158C217.236 77.1432 179.288 59.5 156.5 79C120.5 51.3166 82.5 89.5 97.5 123.5C99.752 124.826 101.176 124.817 104 123.5L119.341 110C119.341 94 136.9 89 144 104.025C153.669 116.85 159.258 116.6 169.5 104.025C177.877 91.0641 186 92 192.5 100.5C199.265 108.5 191.044 144.221 179.288 160.621C167.532 177.021 150.388 188.724 130.88 193.667C111.373 198.609 90.7545 196.473 72.6618 187.635C54.5691 178.797 40.1641 163.825 31.9874 145.36C23.8107 126.895 22.3875 106.122 27.9689 86.7053C33.5502 67.2888 45.7775 50.4757 62.4943 39.2312C79.2112 27.9867 99.3438 23.0332 119.341 25.2443C144 27 166.5 41.6834 171.5 50.5C174.701 53.6834 197.5 51.3166 197.5 51.3166C199.798 50.7582 199.94 49.4096 200 47C186.836 25.9227 152.528 1.27531 122.035 0.663514C96.2713 -2.18504 70.3342 4.19666 48.7976 18.6831C27.261 33.1695 11.5084 54.8302 4.31783 79.8448C-2.87269 104.859 -1.03918 131.621 9.495 155.411C20.0292 179.2 38.5873 198.488 61.8965 209.874C85.2057 221.26 111.769 224.012 136.9 217.645C162.032 211.278 184.119 196.2 199.265 175.072Z" fill="#FF0044"/>
</svg>
