<?xml version="1.0" encoding="utf-8"?>
<!-- Generator: Adobe Illustrator 27.5.0, SVG Export Plug-In . SVG Version: 6.00 Build 0)  -->
<svg version="1.1" xmlns="http://www.w3.org/2000/svg" xmlns:xlink="http://www.w3.org/1999/xlink" x="0px" y="0px"
	 viewBox="0 0 600 600" style="enable-background:new 0 0 600 600;" xml:space="preserve">
<g id="background">
	<rect y="0" style="fill:#FFFFFF;" width="600" height="600"/>
</g>
<g id="objects">
	<g>
		<g>
			<g>
				<polygon style="fill:#1F18AA;" points="228.363,436.189 185.434,430.23 128.003,444.372 265.022,524.219 				"/>
				<polygon style="fill:#462ED8;" points="128.003,444.372 228.363,436.189 386.44,421.831 128.003,358.443 				"/>
				<polygon style="fill:#C632EA;" points="386.44,421.831 386.44,358.321 206.97,344.085 59.877,358.012 128.003,371.579 				"/>
				<polygon style="fill:#FF52DE;" points="50.683,162.643 549.317,98.819 513.225,358.443 59.877,358.012 				"/>
			</g>
			<polygon style="fill:#9F28BC;" points="386.44,379.835 386.44,358.321 59.877,358.321 			"/>
			<polygon style="fill:#1F18AA;" points="128.003,387.43 386.44,421.831 128.003,371.579 			"/>
			<polygon style="fill:#13137A;" points="128.003,444.372 234.945,451.995 228.363,436.189 			"/>
		</g>
		<polygon style="fill:#462ED8;" points="69.55,146.077 386.44,104.726 377.907,75.781 		"/>
	</g>
</g>
</svg>
